<svg xmlns="http://www.w3.org/2000/svg" width="227.571" height="227.571" version="1" viewBox="0 0 722 722" shape-rendering="geometricPrecision" text-rendering="geometricPrecision" image-rendering="optimizeQuality" fill-rule="evenodd" clip-rule="evenodd"><defs><style>.fil0{fill:#0073bb}.fil1,.fil2{fill:#fefefe;fill-rule:nonzero}.fil2{fill:#ef7f1a}</style></defs><g id="Слой_x0020_1"><path class="fil0" d="M361 0c199 0 361 162 361 361S560 722 361 722 0 560 0 361 162 0 361 0z"/><path class="fil1" d="M494 472V336c-2-49 17-88 60-125l43-37 20-17v136c1 50-17 89-60 126l-43 36-20 17z"/><path class="fil2" d="M605 184l-43 36c-38 32-57 67-56 116v110l42-37c39-32 58-67 57-116V184z"/><path class="fil1" d="M274 441c0 11-2 21-6 30s-10 17-17 24c-7 6-15 11-25 14-9 3-19 5-30 5s-21-2-31-5c-9-3-17-8-24-14-7-7-13-15-17-24s-6-19-6-30c0-8 1-15 3-21s5-12 8-16c3-5 7-10 11-13 4-4 8-7 13-10-8-5-16-11-22-20s-9-20-9-34c0-11 2-20 6-29 4-8 9-15 16-22 6-6 14-10 23-14 9-3 18-5 29-5 10 0 20 2 29 5 9 4 16 8 23 14 7 7 12 14 16 22 4 9 6 18 6 29 0 14-3 25-9 34s-14 15-22 20c5 3 9 6 13 10 4 3 8 8 11 13 3 4 6 10 8 16s3 13 3 21zm-37-1c0-6-1-11-3-17-2-5-5-9-9-13-3-4-8-7-13-9s-10-3-16-3-12 1-17 3-9 5-13 9c-3 4-6 8-8 13-3 6-4 11-4 17s1 11 4 16c2 6 5 10 8 14 4 4 8 7 13 9s11 3 17 3 11-1 16-3 10-5 13-9c4-4 7-8 9-14 2-5 3-10 3-16zm-4-112c0-11-3-20-10-27-7-8-16-11-27-11s-20 3-27 11c-7 7-10 16-10 27 0 12 3 21 10 28s16 11 27 11 20-4 27-11 10-16 10-28zm212 114c0 11-2 21-6 30-3 9-9 17-15 23-7 6-15 11-24 14-8 3-18 5-28 5s-19-2-28-5-17-8-23-14c-7-6-12-14-16-23s-6-19-6-30V330c0-12 2-22 6-31s9-16 16-22c6-7 14-11 23-15 9-3 18-5 28-5s20 2 28 5c9 4 17 8 24 15 6 6 12 13 15 22 4 9 6 19 6 31v112zm-36-111c0-13-3-23-10-30-6-8-15-11-27-11-11 0-20 3-27 11-6 7-9 17-9 30v110c0 12 3 22 9 29 7 8 16 12 27 12 12 0 21-4 27-12 7-7 10-17 10-29V331z"/></g></svg>