<svg xmlns="http://www.w3.org/2000/svg" width="224.21" height="224.21" version="1" viewBox="0 0 1735 1735" shape-rendering="geometricPrecision" text-rendering="geometricPrecision" image-rendering="optimizeQuality" fill-rule="evenodd" clip-rule="evenodd"><defs><style>.fil0,.fil1,.fil2{fill:#fefefe}.fil1,.fil2{fill-rule:nonzero}.fil1{fill:#9d9e9e}</style></defs><g id="Слой_x0020_1"><path class="fil0" d="M867 0c479 0 868 388 868 867s-389 868-868 868S0 1346 0 867 388 0 867 0z"/><path class="fil1" d="M618 824c0-314 176-574 405-575 57 0 111 16 160 46l-18 29c-44-27-92-41-142-41-100-1-192 58-261 156-68 98-110 234-110 385s42 288 110 386c69 98 161 156 261 156 69 0 133-27 188-75l23 26c-61 52-133 83-211 83-229-2-405-262-405-576z"/><path class="fil1" d="M988 1410c-249-1-443-266-444-586 1-320 195-584 444-585 99 0 191 43 265 115l-24 24c-68-67-151-105-241-105-112 0-213 60-288 159-75 100-122 239-122 392 0 154 47 293 122 392 75 100 176 160 288 160 65 0 126-20 180-56l19 28c-60 39-127 62-199 62z"/><path class="fil1" d="M969 1437c-291-1-518-279-519-613 1-334 228-611 519-612 126 0 241 53 330 139l-47 49c-79-76-176-120-283-120-122 0-234 59-316 157-83 98-134 235-134 387s51 289 134 387c82 99 194 158 316 158 110 0 210-47 289-127l48 48c-89 91-207 147-336 147h-1z"/><path class="fil1" d="M736 824c0 154 39 293 101 393 62 99 146 158 236 158 89 0 167-58 224-158 57-99 91-238 91-393 0-154-34-293-91-393-57-99-135-157-224-157-90 0-174 58-236 158-62 99-101 238-101 392zm-36 0c1-318 160-583 373-585 213 3 349 268 350 585-1 317-137 583-350 586-213-3-372-267-373-586z"/><path class="fil1" d="M1405 824c0 298-129 539-289 539-159 0-288-241-288-539 0-297 129-539 288-539 160 0 289 242 289 539z"/><path class="fil1" d="M1291 1190c49-92 81-222 81-366s-32-274-81-365c-49-92-113-141-174-140-62-1-126 48-175 140-49 91-81 221-81 365s32 274 81 366 113 141 175 140c61 1 125-48 174-140zm-408 31c-56-103-89-243-89-397 0-153 33-293 89-397 55-103 135-175 234-175 98 0 178 72 233 175 56 104 89 244 89 397 0 154-33 294-89 397-55 103-135 175-233 176-99-1-179-73-234-176z"/><path class="fil2" d="M1133 482c-33 0-63 33-86 84 28 63 46 155 46 258 0 104-18 196-46 258 23 52 53 84 86 84 72 0 131-153 131-342s-59-342-131-342z"/><path class="fil1" d="M309 1346c-37-51-57-116-72-186-28-140-36-302-79-401-30-66-63-99-133-100 6-23 12-45 20-67 63 5 113 39 144 85 35 51 54 116 68 186 27 139 36 301 81 400 32 65 67 99 141 101 55 0 135-23 242-83l32 59c-113 62-200 90-274 91h-2c-74 0-132-35-168-85z"/></g></svg>