<svg xmlns="http://www.w3.org/2000/svg" width="142.507" height="181.914" version="1" viewBox="0 0 531 678" shape-rendering="geometricPrecision" text-rendering="geometricPrecision" image-rendering="optimizeQuality" fill-rule="evenodd" clip-rule="evenodd"><defs><style>.fil1{fill:#fefefe}.fil0{fill:#0073bb;fill-rule:nonzero}</style></defs><g id="Слой_x0020_1"><path class="fil0" d="M266 446c-107 0-193-83-193-186S159 73 266 73c106 0 192 84 192 187s-86 186-192 186zm0-446C119 0 0 119 0 266c0 146 203 412 266 412 72 0 265-266 265-412C531 119 412 0 266 0z"/><ellipse class="fil1" cx="266" cy="260" rx="193" ry="186"/><path class="fil0" d="M358 388c16 0 30-6 41-16 10-11 17-25 17-41s-7-31-17-41l-68-70c-2-2-3-4-4-8-1-3-1-7-1-11v-31c0-6-2-11-5-14-3-4-7-6-13-6h-12v13h13l2 2c1 1 2 3 2 5v31c0 4 0 9 1 14s3 10 7 14l68 70c8 8 13 19 13 32 0 12-5 23-13 31s-19 13-31 13-23-5-31-13-13-19-13-31v-78c0-5-2-10-5-14-4-4-9-6-14-6v14c3 0 3 0 4 1 0 1 1 2 1 5v78c0 16 7 30 17 41 10 10 25 16 41 16zm-70-1H161V144c0-7 6-13 13-13h101c7 0 13 6 13 13v243zM180 227c0 3 3 6 7 6h76c3 0 6-3 6-6v-64c0-4-3-7-6-7h-76c-4 0-7 3-7 7v64z"/></g></svg>