<svg xmlns="http://www.w3.org/2000/svg" width="227.571" height="227.571" version="1" viewBox="0 0 2856 2856" shape-rendering="geometricPrecision" text-rendering="geometricPrecision" image-rendering="optimizeQuality" fill-rule="evenodd" clip-rule="evenodd"><defs><style>.fil0,.fil1,.fil2{fill:#fefefe}.fil1,.fil2{fill-rule:nonzero}.fil1{fill:#9d9e9e}</style></defs><g id="Слой_x0020_1"><path class="fil0" d="M1428 0c788 0 1428 639 1428 1428 0 788-640 1428-1428 1428C639 2856 0 2216 0 1428 0 639 639 0 1428 0z"/><path class="fil1" d="M1892 1867v-541c-6-197 69-350 239-497l169-144 80-68v540c7 196-67 350-239 497l-169 144-80 69z"/><path class="fil2" d="M2332 722l-168 144c-151 128-229 265-224 460v435l169-145c151-128 229-264 223-459V722z"/><path class="fil1" d="M850 1165v78c0 242-15 378-31 467-12 67-26 126-60 199h201v-744H850zm333 737v280h-136v-152H683v152H548v-280h67c31-69 56-146 73-237 23-136 29-382 29-555v-72h385v864h81zM1672 1038v135h-175v857h-142v-857h-176v-135z"/></g></svg>