<svg xmlns="http://www.w3.org/2000/svg" width="227.571" height="227.571" version="1" viewBox="0 0 1274 1274" shape-rendering="geometricPrecision" text-rendering="geometricPrecision" image-rendering="optimizeQuality" fill-rule="evenodd" clip-rule="evenodd"><defs><style>.fil0,.fil1,.fil2{fill:#fefefe}.fil1,.fil2{fill-rule:nonzero}.fil1{fill:#9d9e9e}</style></defs><g id="Слой_x0020_1"><path class="fil0" d="M637 0c352 0 637 285 637 637s-285 637-637 637S0 989 0 637 285 0 637 0z"/><path class="fil1" d="M912 835V594c-2-88 31-156 107-222l75-64 36-31v241c3 88-30 156-107 222l-75 64-36 31z"/><path class="fil2" d="M1108 324l-75 65c-67 57-102 118-99 205v193l75-64c67-57 102-118 99-205V324z"/><path class="fil1" d="M195 905h63V524h129v-60H195v441zm394 0l-96-441h-56l-96 441h63l21-94h80l21 94h63zm-91-151h-67l33-168 34 168zm115-165h63v-26c0-5 0-10 2-16 1-6 4-11 10-17 7-7 17-11 29-11 13 0 23 3 31 10 6 5 10 11 11 18s1 12 1 17v28c0 5 0 11-1 18-1 8-5 15-11 21-4 5-10 9-17 11-7 3-15 5-23 5h-17v56h19c9 0 17 1 22 4 5 2 9 4 11 6 4 3 7 7 9 11 3 5 4 10 6 14 1 5 2 10 2 14v50c0 8 0 14-1 21-1 6-4 12-10 17-3 3-6 5-11 7s-11 3-19 3c-6 0-11-1-18-3-6-1-12-4-15-9-4-3-6-8-8-14s-2-11-2-16v-25h-63v41c0 10 1 18 3 25 2 8 5 14 8 20 3 5 6 9 9 13 3 3 5 5 7 6 11 10 23 17 37 19 13 3 26 5 38 5 14 0 28-2 42-5s27-10 38-21c13-12 20-24 24-37 3-12 4-25 4-37v-52c0-10 0-19-2-28-1-10-4-19-10-29-2-3-6-8-11-13s-12-10-21-14c9-6 18-13 25-21 9-10 15-21 16-33 2-12 3-24 3-35v-38c0-10-1-19-4-27-2-8-5-15-9-21-3-6-7-11-11-15-4-3-8-6-10-9-10-7-21-12-35-15-13-3-25-5-38-5-16 0-30 2-42 7-12 4-21 9-28 15-8 6-14 12-18 18s-8 13-10 19-4 12-5 18v55z"/></g></svg>