<svg xmlns="http://www.w3.org/2000/svg" width="224.21" height="224.21" version="1" viewBox="0 0 1355 1355" shape-rendering="geometricPrecision" text-rendering="geometricPrecision" image-rendering="optimizeQuality" fill-rule="evenodd" clip-rule="evenodd"><defs><style>.fil0{fill:#009dde}.fil1{fill:#fefefe;fill-rule:nonzero}</style></defs><g id="Слой_x0020_1"><path class="fil0" d="M678 0c374 0 677 303 677 678 0 374-303 677-677 677-375 0-678-303-678-677C0 303 303 0 678 0z"/><path class="fil1" d="M421 1060V824v236c0 20 13 36 32 36 20 0 38-16 38-36V824h81l-80-290 39 140c4 18 24 30 42 27 18-4 30-22 26-40l-46-183c-16-65-50-92-110-92h-56c-60 0-94 27-109 92l-47 183c-3 18 8 36 27 40 18 3 38-9 42-27l39-140-80 290h80v236c0 20 19 36 38 36 20 0 32-16 32-36V824h12v236zM492 303c0 42-34 77-77 77-42 0-76-35-76-77 0-43 34-77 76-77 43 0 77 34 77 77zM886 739h24v308c0 25 21 46 46 46s45-21 45-46V537l47 160c5 18 26 28 44 23s32-24 27-42l-54-206c-17-62-50-87-114-87H846c-65 0-97 25-114 87l-54 206c-5 18 8 37 26 42s39-5 44-23l47-160v510c0 25 21 46 46 46s45-21 45-46V739zM975 306c0 42-34 76-77 76-42 0-77-34-77-76 0-43 35-77 77-77 43 0 77 34 77 77z"/><path class="fil1" d="M886 739h24v308c0 25 21 46 46 46s45-21 45-46V537l47 160c5 18 26 28 44 23s32-24 27-42l-54-206c-17-62-50-87-114-87H846c-65 0-97 25-114 87l-54 206c-5 18 8 37 26 42s39-5 44-23l47-160v510c0 25 21 46 46 46s45-21 45-46V739zM975 306c0 42-34 76-77 76-42 0-77-34-77-76 0-43 35-77 77-77 43 0 77 34 77 77z"/></g></svg>