<svg xmlns="http://www.w3.org/2000/svg" width="227.571" height="227.571" version="1" viewBox="0 0 1932 1932" shape-rendering="geometricPrecision" text-rendering="geometricPrecision" image-rendering="optimizeQuality" fill-rule="evenodd" clip-rule="evenodd"><defs><style>.fil0,.fil1,.fil2{fill:#fefefe}.fil1,.fil2{fill-rule:nonzero}.fil1{fill:#9d9e9e}</style></defs><g id="Слой_x0020_1"><path class="fil0" d="M966 0c534 0 966 433 966 966 0 534-432 966-966 966-533 0-966-432-966-966C0 433 433 0 966 0z"/><path class="fil1" d="M648 885c0-35-9-64-29-86-19-21-44-32-75-32-30 0-55 11-74 32-19 22-29 51-29 86 0 34 9 63 27 85s44 33 76 33c31 0 56-10 75-31 20-21 29-50 29-87zm98-1c0 28-5 55-15 82-9 27-21 55-36 85l-155 315H436l147-292c-10 4-19 7-30 8-10 2-21 2-32 2-24 0-48-4-69-13s-40-23-56-40-29-38-39-62c-9-25-13-51-13-81 0-32 5-60 14-86 11-25 24-47 42-65s39-32 64-42c24-10 51-15 80-15s57 5 82 14c24 9 46 23 63 41 19 17 33 39 42 64 10 25 15 54 15 85zM1209 1139c0 36-3 69-10 99-6 30-22 57-47 81-16 16-35 29-59 39-23 10-52 15-85 15s-61-5-86-15-45-23-59-38c-19-18-32-38-39-60s-11-45-13-70h97c4 31 14 54 30 71 16 16 40 24 70 24s53-9 71-27c15-14 24-32 28-53 3-21 5-43 5-66 0-20-1-39-4-57-3-17-8-31-16-44s-18-23-31-30c-12-8-29-11-48-11-29 0-50 6-66 18s-26 26-31 43h-89V686h366v87H914v180c12-12 27-22 47-29 19-7 41-11 66-11 27 0 51 4 71 12 21 8 38 18 52 32 12 13 23 27 31 41 8 15 14 30 18 46 5 15 7 30 8 47 2 16 2 32 2 48zM1354 1254V889c-4-133 46-236 162-336l114-97 54-46v365c4 132-46 236-162 336l-114 97-54 46z"/><path class="fil2" d="M1651 481l-113 98c-102 87-155 178-151 310v294l114-97c101-88 154-180 150-311V481z"/></g></svg>