<svg xmlns="http://www.w3.org/2000/svg" width="224.21" height="224.21" version="1" viewBox="0 0 680 680" shape-rendering="geometricPrecision" text-rendering="geometricPrecision" image-rendering="optimizeQuality" fill-rule="evenodd" clip-rule="evenodd"><defs><style>.fil0{fill:#009dde}.fil1{fill:#fff;fill-rule:nonzero}</style></defs><g id="Слой_x0020_1"><path class="fil0" d="M340 0c188 0 340 152 340 340S528 680 340 680 0 528 0 340 152 0 340 0z"/><path class="fil1" d="M476 482c8 0 14 7 14 15s-6 15-14 15-15-7-15-15 7-15 15-15zm-262 32c-8 0-15-6-15-14s7-15 15-15 14 7 14 15-6 14-14 14zm70-285l4 41h-57l-14-41h67zm229 41h-35l3-41h36l-4 41zm-215 90l1 14-33 6-6-20h38zm-3-23h-43l-14-44h53l4 44zm80 23l-53 10-1-10h54zm1-67v44h-58l-4-44h62zm0-23h-65l-4-41h68l1 41zm23 0l-1-41h60l-3 41h-56zm51 67h-51v-44h54l-3 44zm57-2l-10 2h-24l3-44h35l-4 42zM241 474l23-59 274-51 18-170H200l-46-46c-7-7-18-7-24 0-7 7-7 18 0 24l48 49 57 175-27 67c-18 2-32 18-32 37 0 21 17 37 38 37 14 0 27-8 33-20h197c6 11 18 18 32 18 20 0 37-17 37-38s-17-38-37-38c-16 0-29 10-35 23H247c-2-3-4-6-6-8z"/></g></svg>