<svg xmlns="http://www.w3.org/2000/svg" width="227.571" height="227.571" version="1" viewBox="0 0 11227 11227" shape-rendering="geometricPrecision" text-rendering="geometricPrecision" image-rendering="optimizeQuality" fill-rule="evenodd" clip-rule="evenodd"><defs><style>.fil0{fill:#0073bb}.fil1,.fil2,.fil3{fill:#fefefe;fill-rule:nonzero}.fil1,.fil2{fill:#fff}.fil2{fill:#fcb514}</style></defs><g id="Слой_x0020_1"><path class="fil0" d="M5613 0c3101 0 5614 2513 5614 5613 0 3101-2513 5614-5614 5614C2513 11227 0 8714 0 5613 0 2513 2513 0 5613 0z"/><path class="fil1" d="M7626 7340V5224c-25-769 264-1373 939-1947l661-566 311-269v2118c24 769-264 1375-939 1948l-660 565-312 267z"/><path class="fil2" d="M9349 2855l-664 569c-586 501-893 1037-871 1800v1703l660-567c591-502 898-1036 875-1800V2855z"/><path class="fil3" d="M2915 4501c-356 0-599 267-599 689 0 385 220 684 599 684 352 0 603-258 603-684 0-422-251-689-603-689zm874 1648l-898 1831h-604l850-1696c-106 43-233 58-357 58-573 0-1032-450-1032-1144 0-725 484-1203 1167-1203s1170 448 1170 1183c0 321-126 626-296 971zM4465 7979v-505l1522-1846c147-182 207-330 207-524 0-357-207-603-574-603-298 0-585 169-585 612h-564c0-675 480-1118 1149-1118 677 0 1143 427 1143 1110 0 350-126 555-372 851L5154 7474h1609v505H4465z"/></g></svg>