<svg xmlns="http://www.w3.org/2000/svg" width="224.21" height="224.21" version="1" viewBox="0 0 7412 7412" shape-rendering="geometricPrecision" text-rendering="geometricPrecision" image-rendering="optimizeQuality" fill-rule="evenodd" clip-rule="evenodd"><defs><style>.fil0{fill:#009dde}.fil1,.fil2{fill:#fefefe;fill-rule:nonzero}.fil2{fill:#00a5db}</style></defs><g id="Слой_x0020_1"><path class="fil0" d="M3706 0c2046 0 3706 1659 3706 3706 0 2046-1660 3706-3706 3706C1659 7412 0 5752 0 3706 0 1659 1659 0 3706 0z"/><path class="fil1" d="M4528 2412c-378 181-1581 1160-1869 1447-32 31-61 61-90 90l-1364-420c-105-32-218 11-274 105-57 93-42 213 35 291l52 51 2488 2488c46 47 107 70 168 70 49 0 97-15 140-45 95-68 126-195 73-299l-961-1924 70-70c288-289 1446-1215 1737-1354 291-138 172-610-205-430z"/><path class="fil1" d="M6096 874c-467 40-1336 112-1336 112-42 4-80 25-106 58L3085 2939c-100 124-124 282-66 433 70 180 244 321 433 350 157 24 952-792 952-792 54-68-594 240-594 240-29 36-263 249-309 242-78-12-161-79-190-154-23-60-1-98 18-122 0 0 1306-1570 1527-1845 113-11 824-81 824-81 41-4 669-41 696-74-89-92-182-179-280-262z"/><path class="fil2" d="M4735 2547s-355 365-491 515c-244 268 185 580 436 410 243-165 798-621 798-621l932-446-1675 142z"/><path class="fil1" d="M4516 3715c-261-8-522-175-540-484-1-108 46-217 123-301 141-155 495-518 496-519 75-77 199-79 276-4s79 199 4 276c-1 1-472 370-472 370-57 60-36 175-37 178-1 2 4 25 37 51 30 26 79 44 113 43 24 0 40-5 54-15 227-153 783-609 783-610l18-14 1579-760 5-3c63 114 119 231 170 351l-1542 742c-96 80-561 459-795 618-84 57-180 81-270 81h-2z"/></g></svg>