<svg xmlns="http://www.w3.org/2000/svg" width="226.268" height="224.21" version="1" viewBox="0 0 1757 1741" shape-rendering="geometricPrecision" text-rendering="geometricPrecision" image-rendering="optimizeQuality" fill-rule="evenodd" clip-rule="evenodd"><defs><style>.fil0,.fil1,.fil2{fill:#009dde}.fil1,.fil2{fill-rule:nonzero}.fil1{fill:#fff}</style></defs><g id="Слой_x0020_1"><path class="fil0" d="M887 0c481 0 870 390 870 871s-389 870-870 870S16 1352 16 871 406 0 887 0z"/><g id="_1161099760"><path class="fil1" d="M636 827c0-315 177-576 407-577 57 0 112 16 161 46l-18 29c-44-27-93-41-143-41-101 0-193 58-262 157-68 98-111 235-111 386 0 152 43 289 111 387 69 99 161 157 262 157 69 0 133-27 189-75l22 26c-61 52-133 83-211 83-230-1-407-263-407-578z"/><path class="fil1" d="M1008 1415c-250-1-445-266-446-588 1-321 196-586 446-587 100 0 192 43 265 116l-23 24c-69-67-152-106-242-106-112 0-215 60-290 160S596 673 596 827c0 155 47 294 122 394s178 160 290 160c65 0 126-20 181-56l18 28c-59 39-127 62-199 62z"/><path class="fil1" d="M989 1442c-293-1-520-279-521-615 1-335 228-613 521-614 126 0 242 53 331 140l-48 49c-78-76-176-121-283-121-123 0-235 59-318 158-82 98-134 236-134 388 0 153 52 290 134 389 83 98 195 158 318 158 110 0 210-47 290-127l48 48c-90 91-208 147-338 147z"/><path class="fil1" d="M754 827c0 155 40 294 102 394 63 100 147 159 237 159s168-58 225-158 91-240 91-395c0-154-34-294-91-394s-135-158-225-158-174 59-237 159c-62 99-102 239-102 393zm-35 0c1-319 160-585 374-587 214 3 351 269 351 587 0 319-137 585-351 588-214-2-373-268-374-588z"/><path class="fil2" d="M1427 827c0 299-130 542-290 542s-290-243-290-542c0-298 130-541 290-541s290 243 290 541z"/><path class="fil1" d="M1312 1194c49-91 81-222 81-367 0-144-32-275-81-366-50-93-114-142-175-141-62-1-126 48-176 141-49 91-81 222-81 366 0 145 32 276 81 367 50 93 114 142 176 141 61 1 125-48 175-141zm-410 32c-56-104-89-244-89-399 0-154 33-294 89-398 55-103 136-176 235-176 98 0 179 73 234 176 56 104 89 244 89 398 0 155-33 295-89 399-55 103-136 176-234 176-99 0-180-73-235-176z"/><path class="fil1" d="M1153 484c-33 0-63 32-86 84 28 63 47 155 47 259s-19 197-47 259c23 52 53 85 86 85 73 0 132-154 132-344 0-189-59-343-132-343zM326 1351c-37-51-57-117-72-187-29-140-37-303-80-402-30-67-63-100-133-101-9 0-20 1-31 3L0 597c14-2 28-3 41-3 74-1 130 34 165 86 35 51 54 116 68 186 27 140 36 302 81 401 32 66 68 100 142 102 55 0 135-23 243-83l32 59c-113 62-201 91-275 91h-2c-75 0-133-34-169-85z"/></g></g></svg>