<svg xmlns="http://www.w3.org/2000/svg" width="227.571" height="227.571" version="1" viewBox="0 0 1050 1050" shape-rendering="geometricPrecision" text-rendering="geometricPrecision" image-rendering="optimizeQuality" fill-rule="evenodd" clip-rule="evenodd"><defs><style>.fil0,.fil1,.fil2{fill:#fefefe}.fil1,.fil2{fill-rule:nonzero}.fil1{fill:#9d9e9e}</style></defs><g id="Слой_x0020_1"><path class="fil0" d="M525 0c290 0 525 235 525 525s-235 525-525 525S0 815 0 525 235 0 525 0z"/><path class="fil1" d="M324 481c0-19-5-35-16-47-10-11-24-17-41-17-16 0-30 6-40 17-11 12-16 28-16 47s5 34 15 46 24 18 41 18 31-5 41-17c11-11 16-27 16-47zm53-1c0 15-3 30-8 45-5 14-12 30-20 46l-84 171h-57l80-158c-5 2-10 3-16 4s-11 1-17 1c-14 0-26-2-38-7-11-5-22-12-30-22-9-9-16-20-21-34-5-13-8-27-8-44s3-32 8-46c6-14 13-26 23-36 10-9 21-17 34-22 14-6 28-8 44-8s31 2 44 7c14 5 26 13 35 22 10 10 18 22 23 35 5 14 8 29 8 46zM707 682V483c-2-72 25-128 88-182l62-53 29-25v198c2 72-24 128-88 183l-61 52-30 26z"/><path class="fil2" d="M869 261l-62 53c-55 48-84 98-82 169v160l62-53c55-47 84-98 82-169V261z"/><path class="fil1" d="M633 639c0 16-3 31-9 45-5 13-14 24-24 34-10 9-22 16-36 21s-29 7-45 7-31-2-44-7c-14-5-26-12-37-21-10-10-18-21-24-34-6-14-8-29-8-45 0-12 1-22 4-31s7-17 11-24c5-7 10-13 16-19 6-5 13-10 19-13-12-8-22-18-31-31s-13-29-13-49c0-15 3-30 8-42 6-12 13-23 23-32s21-16 34-21 27-7 42-7 29 2 42 7 25 12 35 21 17 20 23 32c5 12 8 27 8 42 0 20-4 36-13 49s-19 23-32 31c7 3 13 8 19 13 6 6 12 12 16 19 5 7 9 15 12 24s4 19 4 31zm-53-2c0-8-2-16-5-24-3-7-7-14-13-19-5-6-12-10-19-13-7-4-15-5-24-5-8 0-17 1-24 5-7 3-14 7-19 13-6 5-10 12-13 19-3 8-5 16-5 24 0 9 2 17 5 25 3 7 7 14 13 19 5 6 12 10 19 13s16 5 24 5c9 0 17-2 24-5s14-7 19-13c6-5 10-12 13-19 3-8 5-16 5-25zm-6-163c0-17-5-30-15-41s-24-16-40-16-29 5-39 16-15 24-15 41c0 16 5 30 15 40 10 11 23 16 39 16s30-5 40-16c10-10 15-24 15-40z"/></g></svg>