<svg xmlns="http://www.w3.org/2000/svg" width="224.21" height="224.21" version="1" viewBox="0 0 3349 3349" shape-rendering="geometricPrecision" text-rendering="geometricPrecision" image-rendering="optimizeQuality" fill-rule="evenodd" clip-rule="evenodd"><defs><style>.fil0{fill:#fefefe}.fil1{fill:#9d9e9e;fill-rule:nonzero}</style></defs><g id="Слой_x0020_1"><path class="fil0" d="M1675 0c924 0 1674 750 1674 1675 0 924-750 1674-1674 1674C750 3349 0 2599 0 1675 0 750 750 0 1675 0z"/><path class="fil1" d="M2545 1933h-563l-29 37c-59 73-148 119-248 119-101 0-190-46-249-119l-29-37h-121c-129 0-234 105-234 234v229H822v-229c0-308 249-557 557-557h48l29-37c59-73 148-119 249-119 100 0 189 46 248 119l29 37h563v323zm176-1261h-176v744h-472c-74-76-170-129-278-148v-192h331V883h-857v193h332v195c-103 21-195 73-265 146-395 23-708 349-708 750v424h638v-424c0-22 18-40 40-40h31c93 96 223 156 368 156 144 0 275-60 367-156h473v550h176V672z"/></g></svg>