<svg xmlns="http://www.w3.org/2000/svg" width="224.21" height="224.21" version="1" viewBox="0 0 964 964" shape-rendering="geometricPrecision" text-rendering="geometricPrecision" image-rendering="optimizeQuality" fill-rule="evenodd" clip-rule="evenodd"><defs><style>.fil0{fill:#009dde}.fil1{fill:#fefefe;fill-rule:nonzero}</style></defs><g id="Слой_x0020_1"><path class="fil0" d="M482 0c266 0 482 216 482 482S748 964 482 964 0 748 0 482 216 0 482 0z"/><path class="fil1" d="M332 311h300v156c0 53-44 97-97 97H429c-54 0-97-44-97-97V311zm357 14c30 9 53 37 53 71 0 33-23 61-53 70V325zM429 621h106c64 0 119-39 142-95 68-5 122-61 122-130 0-66-48-119-110-129v-14H275v214c0 85 69 154 154 154zm-280 19c0 48 37 70 66 70h534c35 0 66-27 66-70H149z"/></g></svg>