<svg xmlns="http://www.w3.org/2000/svg" width="224.21" height="224.21" version="1" viewBox="0 0 7412 7412" shape-rendering="geometricPrecision" text-rendering="geometricPrecision" image-rendering="optimizeQuality" fill-rule="evenodd" clip-rule="evenodd"><defs><style>.fil0,.fil1,.fil2{fill:#fefefe}.fil1,.fil2{fill-rule:nonzero}.fil1{fill:#9d9e9e}</style></defs><g id="Слой_x0020_1"><path class="fil0" d="M3706 0c2046 0 3706 1659 3706 3706 0 2046-1660 3706-3706 3706C1659 7412 0 5752 0 3706 0 1659 1659 0 3706 0z"/><path class="fil1" d="M4528 2412c-378 181-1581 1160-1869 1447-32 31-61 61-90 90l-1364-420c-105-32-218 11-274 105-57 93-42 213 35 291l52 51 2488 2488c46 47 107 70 168 70 49 0 97-15 140-45 95-68 126-195 73-299l-961-1924 70-70c288-289 1446-1215 1737-1354 291-138 172-610-205-430z"/><path class="fil2" d="M4735 2547s-355 365-491 515c-244 268 185 580 436 410 243-165 798-621 798-621l932-446-1675 142z"/><path class="fil1" d="M4516 3715c-232-7-463-139-525-384-220 203-460 403-539 391-189-29-363-170-433-350-58-151-34-309 66-433l1569-1895c26-33 64-54 106-58 0 0 869-72 1336-112 98 83 191 170 280 262-27 33-655 70-696 74 0 0-711 70-824 81-221 275-1527 1845-1527 1845-19 24-41 62-18 122 29 75 112 142 190 154 46 7 280-206 309-242 0 0 87-42 195-91 21-54 54-105 94-149 141-155 495-518 496-519 75-77 199-79 276-4s79 199 4 276c-1 1-472 370-472 370-57 60-36 175-37 178-1 2 4 25 37 51 30 26 79 44 113 43 24 0 40-5 54-15 227-153 783-609 783-610l18-14 1579-760 5-3c63 114 119 231 170 352l-1542 741c-96 80-561 459-795 618-84 57-180 81-270 81h-2z"/></g></svg>