<svg xmlns="http://www.w3.org/2000/svg" width="224.21" height="224.21" version="1" viewBox="0 0 850 850" shape-rendering="geometricPrecision" text-rendering="geometricPrecision" image-rendering="optimizeQuality" fill-rule="evenodd" clip-rule="evenodd"><defs><style>.fil0{fill:#fefefe}.fil1{fill:#9d9e9e;fill-rule:nonzero}</style></defs><g id="Слой_x0020_1"><path class="fil0" d="M425 0c234 0 425 190 425 425 0 234-191 425-425 425C190 850 0 659 0 425 0 190 190 0 425 0z"/><path class="fil1" d="M272 438l36 36c65-64 169-64 233 0l36-36c-84-84-221-84-305 0z"/><path class="fil1" d="M198 364l36 36c105-106 277-106 382 0l36-36c-125-125-329-126-454 0z"/><path class="fil1" d="M425 170c-113 0-218 44-298 123l36 36c70-70 163-108 262-108s192 38 262 108l36-36c-80-79-186-123-298-123zM349 662l-32-114h-20l-32 114-28-114h-25l41 160h22l32-112 33 112h21l42-160h-26zM423 708h23V594h-23zM423 571h24v-24h-24zM486 708h24v-68h66v-22h-66v-48h78v-22H486zM614 571h24v-24h-24zM614 708h23V594h-23z"/></g></svg>